<svg height="511pt" viewBox="0 1 511 511.99998" width="511pt" xmlns="http://www.w3.org/2000/svg"><path d="m51.320312 0c-28.066406 0-50.820312 22.753906-50.820312 50.820312v50.816407h156.613281v-50.816407c0-28.066406-77.730469-50.820312-105.792969-50.820312zm0 0" fill="#ccc"/><path d="m410.617188 50.824219v359.539062s-229.597657 101.636719-257.664063 101.636719c-14.03125 0-26.738281-5.683594-35.933594-14.878906-9.195312-9.195313-14.886719-21.902344-14.886719-35.933594v-410.363281c0-28.066407-22.75-50.824219-50.816406-50.824219h308.488282c28.0625 0 50.8125 22.757812 50.8125 50.824219zm0 0" fill="#e6e6e6"/><path d="m410.617188 387.9375v22.425781s-229.597657 101.636719-257.664063 101.636719c-14.03125 0-26.738281-5.683594-35.933594-14.878906-9.195312-9.195313-14.886719-21.902344-14.886719-35.933594v-73.25zm0 0" fill="#ccc"/><g fill="#3c4b4f"><path d="m364.132812 109.472656h-204.804687c-4.328125 0-7.835937-3.507812-7.835937-7.835937s3.507812-7.835938 7.835937-7.835938h204.804687c4.328126 0 7.835938 3.507813 7.835938 7.835938s-3.507812 7.835937-7.835938 7.835937zm0 0"/><path d="m364.132812 170.078125h-204.804687c-4.328125 0-7.835937-3.507813-7.835937-7.835937 0-4.328126 3.507812-7.835938 7.835937-7.835938h204.804687c4.328126 0 7.835938 3.507812 7.835938 7.835938 0 4.328124-3.507812 7.835937-7.835938 7.835937zm0 0"/><path d="m364.132812 230.683594h-204.804687c-4.328125 0-7.835937-3.511719-7.835937-7.839844s3.507812-7.835938 7.835937-7.835938h204.804687c4.328126 0 7.835938 3.507813 7.835938 7.835938s-3.507812 7.839844-7.835938 7.839844zm0 0"/></g><path d="m512.25 410.363281v50.824219c0 14.03125-5.6875 26.738281-14.882812 35.933594-9.195313 9.195312-21.898438 14.878906-35.929688 14.878906h-308.488281c28.066406 0 50.824219-22.746094 50.824219-50.8125v-50.824219zm0 0" fill="#e6e6e6"/><path d="m442.847656 220.554688c-47.386718 47.390624-110.335937 69.75-172.398437 67.078124-2.667969-62.0625 19.691406-125.007812 67.078125-172.394531 47.398437-47.398437 110.335937-69.75 172.40625-67.089843.007812.246093.027344.484374.035156.730468 1.597656 40.332032-19.257812 78.261719-53.867188 99.03125l-48.535156 29.117188h69.457032c-9.382813 15.507812-20.785157 30.136718-34.175782 43.527344zm0 0" fill="#6198ce"/><path d="m509.9375 48.148438-239.488281 239.484374c-2.667969-62.0625 19.691406-125.007812 67.078125-172.394531 47.398437-47.398437 110.335937-69.75 172.410156-67.089843zm0 0" fill="#4884b5"/><path d="m237.878906 328.042969c-2.003906 0-4.011718-.765625-5.542968-2.296875-3.058594-3.0625-3.058594-8.023438 0-11.082032l110.523437-110.523437c3.0625-3.058594 8.023437-3.058594 11.085937 0 3.058594 3.0625 3.058594 8.023437 0 11.082031l-110.523437 110.523438c-1.53125 1.53125-3.535156 2.296875-5.542969 2.296875zm0 0" fill="#545d68"/><path d="m347.410156 362.339844h-89.859375c-4.332031 0-7.839843-3.507813-7.839843-7.835938s3.507812-7.839844 7.839843-7.839844h89.859375c4.328125 0 7.835938 3.511719 7.835938 7.839844s-3.507813 7.835938-7.835938 7.835938zm0 0" fill="#3c4b4f"/></svg>